#!OML:ASF F:\VICON\USERDATA\INSTALL\rory3\rory3.ASF
:FULLY-SPECIFIED
:DEGREES
1086
root -3.35014 18.8191 7.45613 -1.07024 -13.4573 3.97022
lowerback 6.25964 -1.28744 0.551109
upperback 0.274312 -1.71669 -1.15486
thorax -3.278 -0.871107 -1.34556
lowerneck -7.89281 -9.16349 -6.58134
upperneck -13.0882 -10.6154 20.2439
head -0.928118 -5.51943 6.9879
rclavicle -2.60159e-014 2.78299e-015
rhumerus 55.2896 -28.2324 -39.9327
rradius 49.8479
rwrist -11.9749
rhand -46.7901 -1.31241
rfingers 7.12502
rthumb -19.5055 -30.354
lclavicle -2.60159e-014 2.78299e-015
lhumerus -31.6136 -4.28284 70.3551
lradius 28.5537
lwrist -10.5644
lhand -29.6447 17.6175
lfingers 7.12502
lthumb -2.97435 47.5765
rfemur -2.40841 15.5188 20.5748
rtibia 23.7756
rfoot -18.9555 -19.518
rtoes -1.84196
lfemur -2.61114 -1.38839 -9.7859
ltibia 27.699
lfoot -2.83655 8.94672
ltoes -28.1425
1087
root -3.32995 18.8116 7.46072 -1.08161 -13.522 3.96439
lowerback 6.24847 -1.33884 0.698888
upperback 0.280813 -1.77717 -1.22635
thorax -3.27363 -0.903966 -1.49709
lowerneck -7.84459 -9.28416 -6.03115
upperneck -13.4149 -10.8014 19.5581
head -1.09787 -5.63764 6.69219
rclavicle -2.52581e-014 1.74931e-014
rhumerus 56.585 -28.51 -40.686
rradius 48.8671
rwrist -11.2692
rhand -46.848 -2.13721
rfingers 7.12502
rthumb -19.5611 -31.1732
lclavicle -2.52581e-014 1.74931e-014
lhumerus -31.6477 -4.61584 70.0812
lradius 28.4285
lwrist -10.9206
lhand -30.5012 17.1548
lfingers 7.12502
lthumb -3.80149 47.1007
rfemur -2.54842 15.4078 20.4809
rtibia 24.0776
rfoot -19.1072 -19.3767
rtoes -2.13703
lfemur -2.74331 -1.1189 -9.84721
ltibia 28.053
lfoot -3.08458 8.85234
ltoes -27.7729
1088
root -3.30839 18.8054 7.46162 -1.08247 -13.5987 3.9553
lowerback 6.33507 -1.39188 0.807315
upperback 0.266477 -1.84161 -1.2706
thorax -3.34405 -0.938418 -1.59553
lowerneck -7.90143 -9.36567 -5.80302
upperneck -13.4906 -10.9363 19.1455
head -1.14247 -5.70606 6.52212
rclavicle -5.52124e-014 -3.18055e-015
rhumerus 57.6285 -28.6103 -40.9655
rradius 47.9772
rwrist -10.8085
rhand -46.6602 -1.60799
rfingers 7.12502
rthumb -19.3805 -30.6622
lclavicle -5.52124e-014 -3.18055e-015
lhumerus -31.6741 -4.71757 69.8094
lradius 28.3031
lwrist -11.1645
lhand -31.3887 15.8881
lfingers 7.12502
lthumb -4.6585 45.8168
rfemur -2.75755 15.2371 20.3738
rtibia 24.4115
rfoot -19.1864 -19.1993
rtoes -2.59833
lfemur -2.92467 -0.93334 -9.93802
ltibia 28.4442
lfoot -3.34959 8.88642
ltoes -27.2947
1089
root -3.28756 18.7982 7.45953 -1.08995 -13.674 3.98865
lowerback 6.53179 -1.45289 0.783517
upperback 0.207469 -1.92512 -1.28349
thorax -3.51803 -0.980749 -1.58209
lowerneck -8.08566 -9.41169 -5.66757
upperneck -13.3773 -11.0371 18.7747
head -1.10661 -5.74029 6.36881
rclavicle 3.42904e-015 4.96962e-015
rhumerus 58.434 -28.4689 -40.804
rradius 47.1223
rwrist -10.422
rhand -46.5115 -0.199265
rfingers 7.12502
rthumb -19.2376 -29.2678
lclavicle 3.42904e-015 4.96962e-015
lhumerus -31.7151 -4.64544 69.5253
lradius 28.1516
lwrist -11.4488
lhand -31.728 15.2675
lfingers 7.12502
lthumb -4.98609 45.1889
rfemur -3.00175 15.1128 20.2294
rtibia 24.7937
rfoot -19.2709 -19.002
rtoes -2.89807
lfemur -3.14073 -0.844822 -10.0824
ltibia 28.8793
lfoot -3.85214 9.04243
ltoes -26.4336
1090
root -3.26668 18.7872 7.45215 -1.08026 -13.6847 3.95795
lowerback 6.80157 -1.52132 0.83816
upperback 0.135937 -2.01366 -1.32471
thorax -3.75004 -1.02745 -1.63893
lowerneck -8.25572 -9.45172 -5.51889
upperneck -13.327 -11.116 18.5459
head -1.08366 -5.77132 6.26143
rclavicle 3.557e-014 0
rhumerus 58.7613 -28.2324 -39.9772
rradius 46.3531
rwrist -10.2432
rhand -46.8127 0.524934
rfingers 7.12502
rthumb -19.5272 -28.5145
lclavicle 3.557e-014 0
lhumerus -31.7109 -4.72061 69.2345
lradius 28.0005
lwrist -11.6092
lhand -30.7595 16.0618
lfingers 7.12502
lthumb -4.05085 46.003
rfemur -3.27919 14.9884 20.1633
rtibia 25.216
rfoot -19.4062 -18.8755
rtoes -3.06669
lfemur -3.41442 -0.836048 -10.1505
ltibia 29.3285
lfoot -4.32489 9.24385
ltoes -25.7144
